<mxfile host="65bd71144e">
    <diagram id="raRVYdGKjpoMXPDAM_5M" name="Page-1">
        <mxGraphModel dx="1033" dy="737" grid="0" gridSize="10" guides="1" tooltips="1" connect="1" arrows="1" fold="1" page="0" pageScale="1" pageWidth="850" pageHeight="1100" math="0" shadow="0">
            <root>
                <mxCell id="0"/>
                <mxCell id="1" parent="0"/>
                <mxCell id="2" value="Customer Need" style="rounded=1;whiteSpace=wrap;html=1;strokeWidth=2;fillWeight=4;hachureGap=8;hachureAngle=45;fillColor=#f8cecc;sketch=1;horizontal=0;fontSize=16;strokeColor=#b85450;align=left;spacingLeft=17;" parent="1" vertex="1">
                    <mxGeometry x="120" y="160" width="80" height="400" as="geometry"/>
                </mxCell>
                <mxCell id="3" value="Product Idea" style="rounded=1;whiteSpace=wrap;html=1;strokeWidth=2;fillWeight=4;hachureGap=8;hachureAngle=45;fillColor=#F8E2E2;sketch=1;horizontal=0;fontSize=16;strokeColor=#b85450;align=left;spacingLeft=17;" parent="1" vertex="1">
                    <mxGeometry x="240" y="200" width="80" height="360" as="geometry"/>
                </mxCell>
                <mxCell id="4" value="Product Vision" style="rounded=1;whiteSpace=wrap;html=1;strokeWidth=2;fillWeight=4;hachureGap=8;hachureAngle=45;fillColor=#F8ECEC;sketch=1;horizontal=0;fontSize=16;strokeColor=#b85450;align=left;spacingLeft=17;" parent="1" vertex="1">
                    <mxGeometry x="360" y="240" width="80" height="320" as="geometry"/>
                </mxCell>
                <mxCell id="5" value="Product Strategy" style="rounded=1;whiteSpace=wrap;html=1;strokeWidth=2;fillWeight=4;hachureGap=8;hachureAngle=45;fillColor=#fff2cc;sketch=1;horizontal=0;fontSize=16;strokeColor=#d6b656;align=left;spacingLeft=17;" parent="1" vertex="1">
                    <mxGeometry x="480" y="280" width="80" height="280" as="geometry"/>
                </mxCell>
                <mxCell id="6" value="Product Roadmap" style="rounded=1;whiteSpace=wrap;html=1;strokeWidth=2;fillWeight=4;hachureGap=8;hachureAngle=45;fillColor=#FFF9E0;sketch=1;horizontal=0;fontSize=16;strokeColor=#d6b656;align=left;spacingLeft=17;" parent="1" vertex="1">
                    <mxGeometry x="600" y="320" width="80" height="240" as="geometry"/>
                </mxCell>
                <mxCell id="7" value="Product Backlog" style="rounded=1;whiteSpace=wrap;html=1;strokeWidth=2;fillWeight=4;hachureGap=8;hachureAngle=45;fillColor=#FFF9E6;sketch=1;horizontal=0;fontSize=16;strokeColor=#d6b656;align=left;spacingLeft=17;" parent="1" vertex="1">
                    <mxGeometry x="720" y="360" width="80" height="200" as="geometry"/>
                </mxCell>
                <mxCell id="8" value="Sprint Backlog" style="rounded=1;whiteSpace=wrap;html=1;strokeWidth=2;fillWeight=4;hachureGap=8;hachureAngle=45;fillColor=#d5e8d4;sketch=1;horizontal=0;fontSize=16;strokeColor=#82b366;align=left;spacingLeft=17;" parent="1" vertex="1">
                    <mxGeometry x="840" y="400" width="80" height="160" as="geometry"/>
                </mxCell>
                <mxCell id="9" value="Daily Sprint" style="rounded=1;whiteSpace=wrap;html=1;strokeWidth=2;fillWeight=4;hachureGap=8;hachureAngle=45;fillColor=#E4E8E3;sketch=1;horizontal=0;fontSize=16;strokeColor=#82b366;align=left;spacingLeft=17;" parent="1" vertex="1">
                    <mxGeometry x="960" y="440" width="80" height="120" as="geometry"/>
                </mxCell>
                <mxCell id="10" value="Agile Product Discovery/Development Process" style="text;html=1;strokeColor=none;fillColor=none;align=center;verticalAlign=middle;whiteSpace=wrap;rounded=0;fontSize=22;fontStyle=1;sketch=0;" parent="1" vertex="1">
                    <mxGeometry x="410" y="110" width="330" height="30" as="geometry"/>
                </mxCell>
                <mxCell id="11" value="" style="endArrow=classic;html=1;fontSize=22;strokeWidth=5;strokeColor=#B3B3B3;sketch=1;" parent="1" edge="1">
                    <mxGeometry width="50" height="50" relative="1" as="geometry">
                        <mxPoint x="80" y="600" as="sourcePoint"/>
                        <mxPoint x="80" y="80" as="targetPoint"/>
                    </mxGeometry>
                </mxCell>
                <mxCell id="12" value="" style="endArrow=classic;html=1;fontSize=22;strokeWidth=5;strokeColor=#B3B3B3;sketch=1;" parent="1" edge="1">
                    <mxGeometry width="50" height="50" relative="1" as="geometry">
                        <mxPoint x="80" y="600" as="sourcePoint"/>
                        <mxPoint x="1080" y="600" as="targetPoint"/>
                    </mxGeometry>
                </mxCell>
                <mxCell id="13" value="low" style="text;html=1;strokeColor=none;fillColor=none;align=center;verticalAlign=middle;whiteSpace=wrap;rounded=0;sketch=0;fontSize=22;" parent="1" vertex="1">
                    <mxGeometry x="30" y="610" width="60" height="30" as="geometry"/>
                </mxCell>
                <mxCell id="14" value="high" style="text;html=1;strokeColor=none;fillColor=none;align=center;verticalAlign=middle;whiteSpace=wrap;rounded=0;sketch=0;fontSize=22;" parent="1" vertex="1">
                    <mxGeometry x="1020" y="610" width="60" height="30" as="geometry"/>
                </mxCell>
                <mxCell id="15" value="Level of Detail" style="text;html=1;strokeColor=none;fillColor=none;align=center;verticalAlign=middle;whiteSpace=wrap;rounded=0;sketch=0;fontSize=22;" parent="1" vertex="1">
                    <mxGeometry x="480" y="610" width="180" height="30" as="geometry"/>
                </mxCell>
                <mxCell id="16" value="Ambiguity" style="text;html=1;strokeColor=none;fillColor=none;align=center;verticalAlign=middle;whiteSpace=wrap;rounded=0;sketch=0;fontSize=22;rotation=-90;" parent="1" vertex="1">
                    <mxGeometry x="-40" y="330" width="180" height="30" as="geometry"/>
                </mxCell>
                <mxCell id="17" value="high" style="text;html=1;strokeColor=none;fillColor=none;align=center;verticalAlign=middle;whiteSpace=wrap;rounded=0;sketch=0;fontSize=22;rotation=-90;" parent="1" vertex="1">
                    <mxGeometry x="20" y="90" width="60" height="30" as="geometry"/>
                </mxCell>
            </root>
        </mxGraphModel>
    </diagram>
</mxfile>